screens;
 
http://baypic.net/img-519fc362b853f.html 
 
http://baypic.net/img-519fc3649bf33.html 
 
http://baypic.net/img-519fc36669f7a.html 

Format : MPEG-4
Format profile : Base Media / Version 2
Codec ID : mp42
File size : 427 MiB
Duration : 14mn 35s
Overall bit rate mode : Variable
Overall bit rate : 4 097 Kbps
Encoded date : UTC 2013-05-14 01:42:22
Tagged date : UTC 2013-05-14 01:18:55
Writing application : Sorenson Squeeze 5.0

Video
ID : 2
Format : AVC
Format/Info : Advanced Video Codec
Format profile : Baseline@L3.2
Format settings, CABAC : No
Format settings, ReFrames : 1 frame
Codec ID : avc1
Codec ID/Info : Advanced Video Coding
Duration : 14mn 35s
Bit rate mode : Variable
Bit rate : 3 996 Kbps
Width : 1 280 pixels
Height : 720 pixels
Display aspect ratio : 16:9
Frame rate mode : Constant
Frame rate : 25.000 fps
Standard : PAL
Color space : YUV
Chroma subsampling : 4:2:0
Bit depth : 8 bits
Scan type : Progressive
Bits/(Pixel*Frame) : 0.173
Stream size : 417 MiB (98%)
Encoded date : UTC 2013-05-14 01:42:22
Tagged date : UTC 2013-05-14 01:42:22

Audio
ID : 1
Format : AAC
Format/Info : Advanced Audio Codec
Format profile : LC
Codec ID : 40
Duration : 14mn 35s
Bit rate mode : Variable
Bit rate : 96.0 Kbps
Channel(s) : 2 channels
Channel positions : Front: L R
Sampling rate : 44.1 KHz
Compression mode : Lossy
Stream size : 10.0 MiB (2%)


